<svg xmlns="http://www.w3.org/2000/svg" width="512" height="512" viewBox="18 18 72 72"><title>日子芽 · 小芽手账图标</title><defs><clipPath id="mask"><circle cx="54" cy="54" r="36"/></clipPath></defs><g clip-path="url(#mask)"><rect x="18" y="18" width="72" height="72" fill="#BDE9D4"/><g transform="rotate(-5 54 54)"><path d="M54,45 C53,38 54,32 57,28" fill="none" stroke="#246956" stroke-width="2.4" stroke-linecap="round"/>
<path d="M54,37 C46,38 40,33 40,27 C47,26 54,29 54,37 Z" fill="#80C59D" stroke="#246956" stroke-width="1.5" stroke-linejoin="round"/>
<path d="M55,34 C54,28 60,24 67,26 C68,33 61,38 55,34 Z" fill="#4D9673" stroke="#246956" stroke-width="1.5" stroke-linejoin="round"/>
<path d="M41,43 H67 Q77,43 77,53 V70 Q77,80 67,80 H41 Q31,80 31,70 V53 Q31,43 41,43 Z" fill="#FFF8ED" stroke="#246956" stroke-width="1.9" stroke-linejoin="round"/>
<path d="M39,76 H69 Q73,76 74,74 Q72,79 67,79 H41 Q36,79 34,75 Q36,76 39,76 Z" fill="#E0EDDA"/>
<path d="M37,52 V69" fill="none" stroke="#D2DCCB" stroke-width="1.5" stroke-linecap="round"/>
<path d="M63,43 H71 V54 Q71,55 70,54.5 L67,52.5 L64,54.5 Q63,55 63,54 Z" fill="#FFB69F" stroke="#246956" stroke-width="1.3" stroke-linejoin="round"/>
<path d="M46.2,57 a1.8,1.8 0,1 0,3.6,0 a1.8,1.8 0,1 0,-3.6,0 M60.2,57 a1.8,1.8 0,1 0,3.6,0 a1.8,1.8 0,1 0,-3.6,0" fill="#246956"/>
<path d="M39,62 a3,2 0,1 0,6,0 a3,2 0,1 0,-6,0 M65,62 a3,2 0,1 0,6,0 a3,2 0,1 0,-6,0" fill="#FFB69F"/>
<path d="M50,62 C51,66 57,66 58,62" fill="none" stroke="#246956" stroke-width="2" stroke-linecap="round"/>
<path d="M49,71 Q49,67 53,67 H61 Q65,67 65,71 V72 Q65,76 61,76 H53 Q49,76 49,72 Z" fill="#BDE9D4"/>
<path d="M53,71 L56,73 L61,69" fill="none" stroke="#246956" stroke-width="1.9" stroke-linecap="round" stroke-linejoin="round"/></g></g></svg>
